<svg width="585" height="196" viewBox="0 0 585 196" fill="none" xmlns="http://www.w3.org/2000/svg">
<path fill-rule="evenodd" clip-rule="evenodd" d="M25.1846 56.1061C39.3701 29.6105 66.5968 11.7305 97.8336 11.7305C133.181 11.7305 163.395 34.6246 175.384 66.9921C173.516 62.9699 171.262 59.587 168.526 57.08C165.765 54.55 162.378 52.9019 158.715 52.9019C155.052 52.9019 151.665 54.55 148.904 57.08C146.143 59.6104 143.872 63.0312 141.993 67.1031C138.234 75.2456 136.045 86.0681 136.045 97.9999C136.045 109.932 138.234 120.754 141.993 128.897C143.872 132.969 146.143 136.39 148.904 138.92C151.665 141.45 155.052 143.098 158.715 143.098C162.378 143.098 165.765 141.45 168.526 138.92C171.262 136.413 173.516 133.03 175.384 129.008C163.395 161.375 133.181 184.27 97.834 184.27C71.9497 184.27 48.8186 171.993 33.5789 152.711H51.1297L63.9474 171.935H123.468V165.045H103.408L106.371 159.118H117.06V152.228H102.113L95.7051 165.045H67.6343L59.4103 152.711H63.1557C63.9424 154.332 65.2298 155.686 66.696 156.663C69.1085 158.271 72.1281 159.118 75.4034 159.118C78.6784 159.118 81.6992 158.271 84.1117 156.663C86.5241 155.055 88.4616 152.431 88.4616 149.265C88.4616 146.1 86.5241 143.476 84.1117 141.868C81.6992 140.26 78.6784 139.413 75.4034 139.413C72.1281 139.413 69.1085 140.26 66.696 141.868C65.2298 142.845 63.9417 144.2 63.155 145.821H28.6651C20.458 133.037 15.4523 117.839 14.8345 101.444H38.0268L50.8441 127.078H85.0163V120.188H55.1021L45.7301 101.444H82.3806C83.1676 103.066 84.4547 104.42 85.9208 105.397C88.3333 107.006 91.3541 107.853 94.6291 107.853C97.9044 107.853 100.925 107.006 103.337 105.397C105.75 103.789 107.688 101.166 107.688 97.9999C107.688 94.8341 105.75 92.2103 103.337 90.6025C100.925 88.9943 97.9044 88.1471 94.6291 88.1471C91.3541 88.1471 88.3333 88.9943 85.9208 90.6025C84.4547 91.5798 83.1676 92.9342 82.3806 94.5554H64.161L68.2736 82.22H78.608V75.3305H63.3081L56.8991 94.5554H14.8345C15.0779 88.097 16.0001 81.8246 17.5337 75.8117H33.7477V68.9219H19.5936C20.2822 66.9196 21.0433 64.943 21.8752 62.9959H72.1993V56.1057H52.1392L55.1021 50.179H95.1983C95.985 51.8006 97.2724 53.1546 98.7385 54.1319C101.151 55.7401 104.171 56.5873 107.447 56.5873C110.722 56.5873 113.742 55.7401 116.155 54.1319C118.567 52.5237 120.504 49.9003 120.504 46.7345C120.504 43.5686 118.567 40.9448 116.155 39.337C113.742 37.7288 110.722 36.8816 107.447 36.8816C104.171 36.8816 101.151 37.7288 98.7385 39.337C97.2724 40.3143 95.9857 41.6683 95.1991 43.2892H50.8445L44.4362 56.1061H25.1846ZM102.56 45.0692C103.626 44.3583 105.413 43.7715 107.447 43.7715C109.481 43.7715 111.267 44.3583 112.333 45.0692C113.4 45.7805 113.614 46.3612 113.614 46.7345C113.614 47.1077 113.4 47.6884 112.333 48.3997C111.267 49.1106 109.481 49.6974 107.447 49.6974C105.413 49.6974 103.627 49.1106 102.56 48.3997C101.493 47.6884 101.278 47.1077 101.278 46.7345C101.278 46.3612 101.493 45.7805 102.56 45.0692ZM158.616 83.1208C160.635 79.0844 163.888 75.7133 168.328 75.7133C172.768 75.7133 176.022 79.0844 178.04 83.1212C180.059 87.1575 181.166 92.3232 181.166 97.9999C181.166 103.677 180.059 108.842 178.04 112.879C176.022 116.915 172.768 120.287 168.328 120.287C163.888 120.287 160.635 116.915 158.617 112.879C156.598 108.842 155.491 103.677 155.491 97.9999C155.491 92.3236 156.598 87.1575 158.616 83.1208ZM171.981 86.15C171.342 84.8725 170.69 84.0028 170.094 83.4297C170.99 85.1056 171.478 87.1892 171.479 89.3373C171.479 91.8434 170.815 94.2469 169.634 96.0191C168.452 97.7912 166.85 98.7868 165.179 98.787C164.165 98.785 163.167 98.416 162.268 97.7113C162.268 97.7527 162.267 97.7939 162.266 97.835C162.265 97.8898 162.264 97.9446 162.264 97.9999C162.264 102.761 163.273 107.046 164.675 109.85C166.077 112.654 167.549 113.513 168.328 113.513C169.108 113.513 170.579 112.654 171.981 109.85C173.383 107.046 174.393 102.761 174.393 97.9999C174.393 93.2385 173.383 88.9537 171.981 86.15ZM89.7432 96.3347C90.8097 95.6238 92.5952 95.0366 94.6291 95.0366C96.6633 95.0366 98.4495 95.6238 99.516 96.3347C100.583 97.046 100.798 97.6267 100.798 97.9999C100.798 98.3732 100.583 98.9539 99.516 99.6652C98.4495 100.376 96.6633 100.963 94.6291 100.963C92.5952 100.963 90.8097 100.376 89.7432 99.6652C88.6763 98.9539 88.4616 98.3732 88.4616 97.9999C88.4616 97.6267 88.6763 97.046 89.7432 96.3347ZM70.5172 147.6C71.5837 146.889 73.3692 146.302 75.4034 146.302C77.4373 146.302 79.2235 146.889 80.29 147.6C81.3569 148.311 81.5717 148.892 81.5717 149.265C81.5717 149.639 81.3569 150.219 80.29 150.931C79.2235 151.642 77.4373 152.228 75.4034 152.228C73.3692 152.228 71.5837 151.642 70.5172 150.931C69.4507 150.219 69.2356 149.639 69.2356 149.265C69.2356 148.892 69.4507 148.311 70.5172 147.6ZM256.785 132H262.971V100.763C262.971 100.055 262.759 99.4254 262.334 98.8744C261.909 98.3235 261.366 97.9536 260.705 97.7647C260.012 97.5916 259.343 97.631 258.698 97.8828C258.068 98.1346 257.572 98.5596 257.21 99.1577L243.233 123.453L229.255 99.1577C229.082 98.8587 228.87 98.6068 228.618 98.4022C228.366 98.1819 228.083 98.0166 227.768 97.9064C227.469 97.7805 227.154 97.7097 226.824 97.6939C226.493 97.6624 226.162 97.686 225.832 97.7647C225.155 97.9536 224.604 98.3235 224.179 98.8744C223.77 99.4254 223.565 100.055 223.565 100.763V132H229.704V111.837L240.636 130.985C240.903 131.473 241.265 131.843 241.722 132.094C242.194 132.346 242.698 132.472 243.233 132.472C243.784 132.472 244.295 132.346 244.768 132.094C245.255 131.843 245.633 131.473 245.901 130.985L256.785 111.837V132ZM278.578 118.164H297.962V111.978H278.578V118.164ZM278.578 132H300.724V125.861H278.625C277.806 125.861 277.185 125.649 276.76 125.224C276.335 124.799 276.122 124.185 276.122 123.382V104.281H300.724V98.1425H273.077C272.636 98.1425 272.227 98.2212 271.849 98.3786C271.471 98.536 271.14 98.7564 270.857 99.0397C270.59 99.323 270.377 99.6536 270.22 100.031C270.062 100.409 269.984 100.81 269.984 101.235V123.382C269.984 124.972 270.267 126.318 270.834 127.42C271.416 128.506 272.132 129.395 272.982 130.088C273.848 130.764 274.784 131.252 275.792 131.551C276.799 131.85 277.728 132 278.578 132ZM376.585 128.27C376.9 127.514 377.057 126.695 377.057 125.814V98.1425C377.057 97.2925 376.9 96.5055 376.585 95.7815C376.27 95.0259 375.829 94.3648 375.263 93.7982C374.728 93.2315 374.082 92.7908 373.327 92.476C372.571 92.1297 371.753 91.9565 370.871 91.9565H332.103V104.328H364.78V119.723H326.578C325.004 119.723 323.776 119.298 322.895 118.448C322.045 117.566 321.62 116.338 321.62 114.764V81.6151C321.62 79.9467 322.045 78.6874 322.895 77.8375C323.745 76.9875 324.972 76.5625 326.578 76.5625H376.491V64.285H326.578C324.469 64.285 322.58 64.5526 320.911 65.0878C319.243 65.623 317.763 66.347 316.473 67.26C315.213 68.1414 314.127 69.1646 313.214 70.3293C312.301 71.4941 311.562 72.7219 310.995 74.0126C310.428 75.2718 310.003 76.5625 309.72 77.8847C309.468 79.1754 309.342 80.3874 309.342 81.5207V114.764C309.342 116.874 309.61 118.778 310.145 120.478C310.68 122.147 311.388 123.626 312.27 124.917C313.183 126.176 314.222 127.262 315.387 128.175C316.551 129.057 317.763 129.781 319.023 130.347C320.313 130.914 321.604 131.339 322.895 131.622C324.217 131.874 325.445 132 326.578 132H370.871C371.753 132 372.571 131.843 373.327 131.528C374.082 131.213 374.728 130.788 375.263 130.253C375.829 129.686 376.27 129.025 376.585 128.27ZM444.017 132H456.294V70.471C456.294 69.621 456.137 68.8183 455.822 68.0627C455.507 67.3072 455.066 66.6461 454.5 66.0794C453.933 65.5128 453.272 65.0721 452.516 64.7573C451.761 64.4424 450.958 64.285 450.108 64.285H422.437C417.557 64.285 413.055 65.1193 408.931 66.7878C404.807 68.4562 401.234 70.7858 398.212 73.7765C395.19 76.7671 392.829 80.3402 391.129 84.4956C389.429 88.6511 388.579 93.2 388.579 98.1425V132H400.857V115.378H444.017V132ZM444.017 76.5625V103.101H400.857V98.1425C400.857 94.7111 401.329 91.7992 402.273 89.4066C403.249 86.9826 404.477 84.9678 405.956 83.3623C407.436 81.7568 409.057 80.4976 410.82 79.5847C412.583 78.6717 414.252 77.9949 415.826 77.5541C417.431 77.1134 418.832 76.8458 420.028 76.7514C421.256 76.6255 422.059 76.5625 422.437 76.5625H444.017ZM500.257 132H506.443V100.763C506.443 100.055 506.23 99.4254 505.805 98.8744C505.38 98.3235 504.837 97.9536 504.176 97.7647C503.484 97.5916 502.815 97.631 502.169 97.8828C501.54 98.1346 501.044 98.5596 500.682 99.1577L486.704 123.453L472.727 99.1577C472.554 98.8587 472.341 98.6068 472.089 98.4022C471.838 98.1819 471.554 98.0166 471.24 97.9064C470.94 97.7805 470.626 97.7097 470.295 97.6939C469.965 97.6624 469.634 97.686 469.303 97.7647C468.627 97.9536 468.076 98.3235 467.651 98.8744C467.241 99.4254 467.037 100.055 467.037 100.763V132H473.176V111.837L484.107 130.985C484.375 131.473 484.737 131.843 485.193 132.094C485.665 132.346 486.169 132.472 486.704 132.472C487.255 132.472 487.767 132.346 488.239 132.094C488.727 131.843 489.105 131.473 489.372 130.985L500.257 111.837V132ZM522.049 118.164H541.434V111.978H522.049V118.164ZM522.049 132H544.196V125.861H522.096C521.278 125.861 520.656 125.649 520.231 125.224C519.806 124.799 519.594 124.185 519.594 123.382V104.281H544.196V98.1425H516.548C516.107 98.1425 515.698 98.2212 515.32 98.3786C514.943 98.536 514.612 98.7564 514.329 99.0397C514.061 99.323 513.849 99.6536 513.691 100.031C513.534 100.409 513.455 100.81 513.455 101.235V123.382C513.455 124.972 513.738 126.318 514.305 127.42C514.887 128.506 515.604 129.395 516.454 130.088C517.319 130.764 518.256 131.252 519.263 131.551C520.271 131.85 521.199 132 522.049 132ZM582.067 125.318C582.382 124.342 582.539 123.248 582.539 122.036C582.539 120.824 582.39 119.738 582.091 118.778C581.792 117.818 581.383 116.968 580.863 116.228C580.359 115.488 579.777 114.859 579.116 114.339C578.455 113.804 577.754 113.363 577.015 113.017C576.291 112.671 575.559 112.419 574.819 112.262C574.079 112.088 573.379 111.994 572.717 111.978H572.67H558.551C557.386 111.978 556.473 111.64 555.812 110.963C555.167 110.27 554.844 109.334 554.844 108.153C554.844 106.989 555.167 106.052 555.812 105.344C556.473 104.635 557.386 104.281 558.551 104.281H579.446V98.1425H558.551C557.56 98.1425 556.489 98.3235 555.34 98.6855C554.191 99.0318 553.121 99.6064 552.129 100.409C551.153 101.196 550.335 102.227 549.674 103.502C549.028 104.761 548.706 106.312 548.706 108.153C548.706 109.995 549.028 111.553 549.674 112.828C550.335 114.103 551.153 115.134 552.129 115.921C553.121 116.708 554.191 117.283 555.34 117.645C556.489 117.991 557.56 118.164 558.551 118.164H572.67C573.237 118.164 573.748 118.259 574.205 118.448C574.677 118.636 575.071 118.904 575.385 119.25C575.716 119.597 575.968 120.006 576.141 120.478C576.314 120.95 576.401 121.47 576.401 122.036C576.401 123.201 576.07 124.13 575.409 124.822C574.764 125.515 573.851 125.861 572.67 125.861H548.989V132H572.67C573.331 132 574.032 131.921 574.772 131.764C575.527 131.606 576.267 131.362 576.991 131.032C577.715 130.701 578.415 130.276 579.092 129.757C579.769 129.238 580.359 128.608 580.863 127.868C581.367 127.128 581.768 126.278 582.067 125.318Z" fill="url(#paint0_linear_201_25)"/>
<defs>
<linearGradient id="paint0_linear_201_25" x1="-188" y1="-44.5" x2="666" y2="219" gradientUnits="userSpaceOnUse">
<stop stop-color="#A259FF"/>
<stop offset="1" stop-color="#41FFDD"/>
</linearGradient>
</defs>
</svg>
